<?xml version="1.0" encoding="utf-8"?>
<!-- Generator: Adobe Illustrator 16.0.0, SVG Export Plug-In . SVG Version: 6.00 Build 0)  -->
<!DOCTYPE svg PUBLIC "-//W3C//DTD SVG 1.1//EN" "http://www.w3.org/Graphics/SVG/1.1/DTD/svg11.dtd">
<svg version="1.1" id="Layer_1" xmlns="http://www.w3.org/2000/svg" xmlns:xlink="http://www.w3.org/1999/xlink" x="0px" y="0px"
	 width="416px" height="500px" viewBox="0 0 416 500" style="enable-background:new 0 0 416 500;" xml:space="preserve">
<style type="text/css">
	.st0{fill:#1E3458;}
</style>
<g>
	<polygon class="st0" points="409.3,493.7 409.3,492 8.4,492 8.4,8.7 407.6,8.7 407.6,493.7 409.3,493.7 409.3,492 409.3,493.7
		411,493.7 411,5.3 5,5.3 5,495.4 411,495.4 411,493.7 	"/>
	<path class="st0" d="M84.3,313.2l12.6,27H94l-4.2-8.9H78.1l-4.2,8.9h-3l12.8-27H84.3z M84,318.9l-4.6,9.8h9.2L84,318.9z"/>
	<path class="st0" d="M104.3,313.2h2.7v16.3c0,1.9,0,3.1,0.1,3.6c0.1,1.1,0.4,2,0.9,2.7c0.5,0.7,1.2,1.3,2.3,1.8
		c1,0.5,2,0.7,3.1,0.7c0.9,0,1.8-0.2,2.6-0.6c0.8-0.4,1.5-0.9,2.1-1.6c0.6-0.7,1-1.5,1.2-2.4c0.2-0.7,0.3-2.1,0.3-4.2v-16.3h2.7
		v16.3c0,2.4-0.2,4.4-0.7,5.8c-0.5,1.5-1.4,2.8-2.8,3.9c-1.4,1.1-3.1,1.7-5.1,1.7c-2.2,0-4-0.5-5.6-1.6c-1.6-1-2.6-2.4-3.1-4.1
		c-0.3-1.1-0.5-3-0.5-5.7V313.2z"/>
	<polygon class="st0" points="129.3,315.8 129.3,313.2 144.1,313.2 144.1,315.8 138.1,315.8 138.1,340.2 135.3,340.2 135.3,315.8
		"/>
	<path class="st0" d="M164,312.5c4.1,0,7.5,1.4,10.3,4.1c2.8,2.7,4.1,6.1,4.1,10.1c0,4-1.4,7.3-4.1,10.1c-2.8,2.8-6.1,4.1-10.1,4.1
		c-4,0-7.4-1.4-10.1-4.1c-2.8-2.7-4.1-6.1-4.1-10c0-2.6,0.6-5,1.9-7.2c1.3-2.2,3-3.9,5.1-5.2C159.1,313.2,161.5,312.5,164,312.5z
		 M164.1,315.1c-2,0-3.9,0.5-5.7,1.6c-1.8,1-3.2,2.4-4.2,4.2c-1,1.8-1.5,3.7-1.5,5.9c0,3.2,1.1,5.9,3.3,8.1c2.2,2.2,4.9,3.3,8,3.3
		c2.1,0,4-0.5,5.8-1.5c1.8-1,3.2-2.4,4.2-4.2c1-1.8,1.5-3.7,1.5-5.9c0-2.1-0.5-4.1-1.5-5.8c-1-1.7-2.4-3.1-4.2-4.2
		C168.1,315.7,166.1,315.1,164.1,315.1z"/>
	<polygon class="st0" points="185.7,340.2 189.6,313.2 190,313.2 201,335.4 211.9,313.2 212.3,313.2 216.2,340.2 213.5,340.2
		210.9,320.9 201.3,340.2 200.6,340.2 191,320.8 188.3,340.2 	"/>
	<path class="st0" d="M235.6,313.2l12.6,27h-2.9l-4.3-8.9h-11.6l-4.2,8.9h-3l12.8-27H235.6z M235.3,318.9l-4.6,9.8h9.2L235.3,318.9z
		"/>
	<polygon class="st0" points="252.9,315.8 252.9,313.2 267.7,313.2 267.7,315.8 261.7,315.8 261.7,340.2 258.9,340.2 258.9,315.8
		"/>
	<rect x="274.3" y="313.2" class="st0" width="2.7" height="27"/>
	<path class="st0" d="M299.2,312.5c4.1,0,7.5,1.4,10.3,4.1c2.8,2.7,4.1,6.1,4.1,10.1c0,4-1.4,7.3-4.1,10.1
		c-2.7,2.8-6.1,4.1-10.1,4.1c-4,0-7.4-1.4-10.1-4.1c-2.8-2.7-4.1-6.1-4.1-10c0-2.6,0.6-5,1.9-7.2c1.3-2.2,3-3.9,5.1-5.2
		C294.3,313.2,296.7,312.5,299.2,312.5z M299.3,315.1c-2,0-3.9,0.5-5.7,1.6c-1.8,1-3.2,2.4-4.2,4.2c-1,1.8-1.5,3.7-1.5,5.9
		c0,3.2,1.1,5.9,3.3,8.1c2.2,2.2,4.9,3.3,8,3.3c2.1,0,4-0.5,5.8-1.5c1.8-1,3.2-2.4,4.2-4.2c1-1.8,1.5-3.7,1.5-5.9
		c0-2.1-0.5-4.1-1.5-5.8c-1-1.7-2.4-3.1-4.2-4.2C303.3,315.7,301.3,315.1,299.3,315.1z"/>
	<polygon class="st0" points="322.2,340.2 322.2,313.2 322.7,313.2 340.7,333.9 340.7,313.2 343.4,313.2 343.4,340.2 342.8,340.2
		325,319.8 325,340.2 	"/>
	<polygon class="st0" points="70.6,361 70.6,358.3 85.4,358.3 85.4,361 79.4,361 79.4,385.3 76.6,385.3 76.6,361 	"/>
	<polygon class="st0" points="91.4,358.3 106.9,358.3 106.9,361 94.1,361 94.1,369.4 106.7,369.4 106.7,372.1 94.1,372.1
		94.1,382.7 106.7,382.7 106.7,385.3 91.4,385.3 	"/>
	<path class="st0" d="M138.7,363.3l-2.1,1.6c-1.2-1.5-2.6-2.7-4.2-3.5c-1.6-0.8-3.5-1.2-5.4-1.2c-2.2,0-4.1,0.5-6,1.6
		c-1.8,1-3.3,2.4-4.3,4.2c-1,1.7-1.5,3.7-1.5,5.9c0,3.3,1.1,6,3.4,8.2c2.3,2.2,5.1,3.3,8.5,3.3c3.8,0,6.9-1.5,9.5-4.4l2.1,1.6
		c-1.3,1.7-3,3-5,4c-2,0.9-4.3,1.4-6.7,1.4c-4.7,0-8.5-1.6-11.2-4.7c-2.3-2.7-3.4-5.9-3.4-9.6c0-4,1.4-7.3,4.2-10
		c2.8-2.7,6.2-4,10.4-4c2.5,0,4.8,0.5,6.8,1.5C135.8,360.2,137.4,361.5,138.7,363.3z"/>
	<polygon class="st0" points="146.2,358.3 148.9,358.3 148.9,369.7 162.7,369.7 162.7,358.3 165.4,358.3 165.4,385.3 162.7,385.3
		162.7,372.3 148.9,372.3 148.9,385.3 146.2,385.3 	"/>
	<polygon class="st0" points="174,385.3 174,358.3 174.6,358.3 192.6,379 192.6,358.3 195.2,358.3 195.2,385.3 194.6,385.3
		176.8,364.9 176.8,385.3 	"/>
	<path class="st0" d="M216.7,357.7c4.1,0,7.5,1.4,10.3,4.1c2.8,2.7,4.1,6.1,4.1,10.1c0,4-1.4,7.3-4.1,10.1
		c-2.7,2.8-6.1,4.1-10.1,4.1c-4,0-7.4-1.4-10.1-4.1c-2.8-2.7-4.1-6.1-4.1-10c0-2.6,0.6-5,1.9-7.2c1.3-2.2,3-4,5.1-5.2
		C211.9,358.3,214.2,357.7,216.7,357.7z M216.9,360.3c-2,0-3.9,0.5-5.7,1.6c-1.8,1-3.2,2.4-4.2,4.2c-1,1.8-1.5,3.7-1.5,5.9
		c0,3.2,1.1,5.9,3.3,8.1c2.2,2.2,4.9,3.3,8,3.3c2.1,0,4-0.5,5.8-1.5c1.8-1,3.2-2.4,4.2-4.2c1-1.8,1.5-3.7,1.5-5.9
		c0-2.1-0.5-4.1-1.5-5.8c-1-1.7-2.4-3.1-4.2-4.2C220.8,360.8,218.9,360.3,216.9,360.3z"/>
	<polygon class="st0" points="238.6,358.3 241.3,358.3 241.3,382.7 251.7,382.7 251.7,385.3 238.6,385.3 	"/>
	<path class="st0" d="M270.9,357.7c4.1,0,7.5,1.4,10.3,4.1c2.8,2.7,4.1,6.1,4.1,10.1c0,4-1.4,7.3-4.1,10.1
		c-2.7,2.8-6.1,4.1-10.1,4.1c-4,0-7.4-1.4-10.1-4.1c-2.8-2.7-4.1-6.1-4.1-10c0-2.6,0.6-5,1.9-7.2c1.3-2.2,3-4,5.1-5.2
		C266.1,358.3,268.4,357.7,270.9,357.7z M271.1,360.3c-2,0-3.9,0.5-5.7,1.6c-1.8,1-3.2,2.4-4.2,4.2c-1,1.8-1.5,3.7-1.5,5.9
		c0,3.2,1.1,5.9,3.3,8.1c2.2,2.2,4.9,3.3,8,3.3c2.1,0,4-0.5,5.8-1.5c1.8-1,3.2-2.4,4.2-4.2c1-1.8,1.5-3.7,1.5-5.9
		c0-2.1-0.5-4.1-1.5-5.8c-1-1.7-2.4-3.1-4.2-4.2C275,360.8,273.1,360.3,271.1,360.3z"/>
	<path class="st0" d="M318.9,362.9l-2.1,2c-1.5-1.5-3.2-2.6-4.9-3.4c-1.8-0.8-3.5-1.1-5.2-1.1c-2.1,0-4.1,0.5-6.1,1.6
		c-1.9,1-3.4,2.4-4.5,4.2c-1.1,1.8-1.6,3.7-1.6,5.6c0,2,0.5,4,1.6,5.8c1.1,1.8,2.6,3.3,4.5,4.3c1.9,1,4,1.6,6.3,1.6
		c2.8,0,5.1-0.8,7.1-2.3c1.9-1.6,3.1-3.6,3.4-6.1h-8.6v-2.6h11.6c0,4.2-1.3,7.5-3.7,9.9c-2.5,2.5-5.7,3.7-9.9,3.7
		c-5,0-8.9-1.7-11.9-5.1c-2.2-2.6-3.4-5.7-3.4-9.1c0-2.6,0.6-4.9,1.9-7.1c1.3-2.2,3-3.9,5.3-5.2c2.2-1.2,4.8-1.9,7.6-1.9
		c2.3,0,4.4,0.4,6.5,1.2C315,359.7,317,361,318.9,362.9z"/>
	<polygon class="st0" points="325.6,358.3 328.7,358.3 335.6,369.5 342.4,358.3 345.5,358.3 337,372.4 337,385.3 334.3,385.3
		334.3,372.4 	"/>
	<path class="st0" d="M70.5,425.5l2.3-1.4c1.6,3,3.5,4.5,5.6,4.5c0.9,0,1.8-0.2,2.6-0.6c0.8-0.4,1.4-1,1.8-1.7
		c0.4-0.7,0.6-1.5,0.6-2.3c0-0.9-0.3-1.8-0.9-2.7c-0.8-1.2-2.4-2.6-4.6-4.3c-2.3-1.7-3.7-2.9-4.2-3.7c-1-1.3-1.4-2.7-1.4-4.1
		c0-1.2,0.3-2.2,0.8-3.2c0.6-1,1.4-1.7,2.4-2.3c1-0.6,2.1-0.8,3.3-0.8c1.3,0,2.5,0.3,3.6,0.9c1.1,0.6,2.3,1.8,3.5,3.5l-2.2,1.7
		c-1-1.3-1.9-2.2-2.6-2.7c-0.7-0.4-1.5-0.6-2.3-0.6c-1.1,0-2,0.3-2.7,1c-0.7,0.7-1,1.5-1,2.4c0,0.6,0.1,1.2,0.4,1.7
		c0.2,0.6,0.7,1.2,1.3,1.8c0.4,0.3,1.5,1.2,3.5,2.7c2.3,1.7,3.9,3.3,4.8,4.6c0.9,1.3,1.3,2.7,1.3,4.1c0,2-0.7,3.7-2.2,5.1
		c-1.5,1.4-3.3,2.2-5.4,2.2c-1.6,0-3.1-0.4-4.5-1.3C72.8,429,71.6,427.5,70.5,425.5z"/>
	<path class="st0" d="M114.8,402.8c4.1,0,7.5,1.4,10.3,4.1c2.8,2.7,4.1,6.1,4.1,10.1c0,4-1.4,7.3-4.1,10.1
		c-2.7,2.8-6.1,4.1-10.1,4.1c-4,0-7.4-1.4-10.1-4.1c-2.8-2.7-4.1-6.1-4.1-10c0-2.6,0.6-5,1.9-7.2c1.3-2.2,3-3.9,5.1-5.2
		C109.9,403.4,112.3,402.8,114.8,402.8z M114.9,405.4c-2,0-3.9,0.5-5.7,1.6c-1.8,1-3.2,2.4-4.2,4.2c-1,1.8-1.5,3.7-1.5,5.9
		c0,3.2,1.1,5.9,3.3,8.1c2.2,2.2,4.9,3.3,8,3.3c2.1,0,4-0.5,5.8-1.5c1.8-1,3.2-2.4,4.2-4.2c1-1.8,1.5-3.7,1.5-5.9
		c0-2.1-0.5-4.1-1.5-5.8c-1-1.7-2.4-3.1-4.2-4.2C118.9,405.9,117,405.4,114.9,405.4z"/>
	<polygon class="st0" points="144.6,403.5 147.3,403.5 147.3,427.9 157.7,427.9 157.7,430.5 144.6,430.5 	"/>
	<path class="st0" d="M172,403.5h2.7v16.3c0,1.9,0,3.1,0.1,3.6c0.1,1.1,0.4,2,0.9,2.7c0.5,0.7,1.2,1.3,2.3,1.8c1,0.5,2,0.7,3.1,0.7
		c0.9,0,1.7-0.2,2.6-0.6c0.8-0.4,1.5-0.9,2.1-1.6c0.6-0.7,1-1.5,1.2-2.4c0.2-0.7,0.3-2.1,0.3-4.2v-16.3h2.7v16.3
		c0,2.4-0.2,4.4-0.7,5.8c-0.5,1.5-1.4,2.8-2.8,3.9c-1.4,1.1-3.1,1.7-5.1,1.7c-2.2,0-4-0.5-5.6-1.6c-1.6-1-2.6-2.4-3.1-4.1
		c-0.3-1.1-0.5-3-0.5-5.7V403.5z"/>
	<polygon class="st0" points="203.8,406.1 203.8,403.5 218.6,403.5 218.6,406.1 212.5,406.1 212.5,430.5 209.8,430.5 209.8,406.1
		"/>
	<rect x="232" y="403.5" class="st0" width="2.7" height="27"/>
	<path class="st0" d="M263.7,402.8c4.1,0,7.5,1.4,10.3,4.1c2.8,2.7,4.1,6.1,4.1,10.1c0,4-1.4,7.3-4.1,10.1
		c-2.8,2.8-6.1,4.1-10.1,4.1c-4,0-7.4-1.4-10.1-4.1c-2.8-2.7-4.1-6.1-4.1-10c0-2.6,0.6-5,1.9-7.2c1.3-2.2,3-3.9,5.1-5.2
		C258.8,403.4,261.2,402.8,263.7,402.8z M263.8,405.4c-2,0-3.9,0.5-5.7,1.6c-1.8,1-3.2,2.4-4.2,4.2c-1,1.8-1.5,3.7-1.5,5.9
		c0,3.2,1.1,5.9,3.3,8.1c2.2,2.2,4.9,3.3,8,3.3c2.1,0,4-0.5,5.8-1.5c1.8-1,3.2-2.4,4.2-4.2c1-1.8,1.5-3.7,1.5-5.9
		c0-2.1-0.5-4.1-1.5-5.8c-1-1.7-2.4-3.1-4.2-4.2C267.8,405.9,265.9,405.4,263.8,405.4z"/>
	<polygon class="st0" points="293.5,430.5 293.5,403.5 294.1,403.5 312.1,424.2 312.1,403.5 314.7,403.5 314.7,430.5 314.1,430.5
		296.3,410 296.3,430.5 	"/>
	<path class="st0" d="M328.4,425.5l2.3-1.4c1.6,3,3.5,4.5,5.6,4.5c0.9,0,1.8-0.2,2.6-0.6c0.8-0.4,1.4-1,1.8-1.7
		c0.4-0.7,0.6-1.5,0.6-2.3c0-0.9-0.3-1.8-0.9-2.7c-0.8-1.2-2.4-2.6-4.6-4.3c-2.3-1.7-3.7-2.9-4.2-3.7c-1-1.3-1.4-2.7-1.4-4.1
		c0-1.2,0.3-2.2,0.8-3.2c0.6-1,1.4-1.7,2.4-2.3c1-0.6,2.1-0.8,3.3-0.8c1.3,0,2.5,0.3,3.6,0.9c1.1,0.6,2.3,1.8,3.5,3.5l-2.2,1.7
		c-1-1.3-1.9-2.2-2.6-2.7c-0.7-0.4-1.5-0.6-2.3-0.6c-1.1,0-2,0.3-2.7,1c-0.7,0.7-1,1.5-1,2.4c0,0.6,0.1,1.2,0.4,1.7
		c0.2,0.6,0.7,1.2,1.3,1.8c0.4,0.3,1.5,1.2,3.5,2.7c2.3,1.7,3.9,3.3,4.8,4.6c0.9,1.3,1.3,2.7,1.3,4.1c0,2-0.7,3.7-2.2,5.1
		c-1.5,1.4-3.3,2.2-5.4,2.2c-1.6,0-3.1-0.4-4.5-1.3C330.8,429,329.6,427.5,328.4,425.5z"/>
	<polyline class="st0" points="350.8,264.6 65.2,264.6 65.2,266.9 350.8,266.9 	"/>
	<path class="st0" d="M110.7,98.2c8.9,0,16.4,1,22.3,3c6,2,10.7,4.9,14.3,8.7c3.6,3.8,6.1,8.4,7.6,13.8c1.5,5.4,2.2,11.4,2.2,18.1
		v63c-4.3,0.9-10.4,2.1-18.1,3.4c-7.7,1.3-17.1,1.9-28,1.9c-6.9,0-13.2-0.6-18.8-1.8c-5.6-1.2-10.5-3.2-14.5-6
		c-4.1-2.8-7.2-6.4-9.3-10.9c-2.2-4.5-3.2-10-3.2-16.4c0-6.2,1.3-11.5,3.8-15.8c2.5-4.3,5.9-7.8,10.1-10.4c4.2-2.6,9-4.4,14.4-5.6
		c5.4-1.1,11-1.7,16.9-1.7c3.9,0,7.4,0.2,10.5,0.5c3,0.3,5.5,0.8,7.4,1.3v-2.8c0-5.1-1.6-9.3-4.7-12.4c-3.1-3.1-8.5-4.7-16.2-4.7
		c-5.1,0-10.2,0.4-15.2,1.1c-5,0.7-9.3,1.8-13,3.1l-3.9-24.4c1.8-0.5,4-1.1,6.6-1.7c2.6-0.6,5.5-1.1,8.6-1.6
		c3.1-0.5,6.4-0.9,9.8-1.2C103.7,98.3,107.2,98.2,110.7,98.2z M113.2,186.7c3,0,5.8-0.1,8.5-0.2c2.7-0.1,4.9-0.3,6.5-0.6v-22.9
		c-1.2-0.3-3-0.5-5.5-0.8c-2.4-0.3-4.7-0.4-6.7-0.4c-2.8,0-5.5,0.2-8,0.5c-2.5,0.3-4.7,1-6.6,1.9c-1.9,0.9-3.4,2.2-4.5,3.9
		c-1.1,1.6-1.6,3.7-1.6,6.1c0,4.7,1.6,8,4.8,9.8C103.2,185.8,107.6,186.7,113.2,186.7z"/>
	<path class="st0" d="M183.6,74.4l30.3-4.9V101h36.3v25.2h-36.3v37.6c0,6.4,1.1,11.4,3.4,15.2c2.2,3.8,6.7,5.7,13.5,5.7
		c3.2,0,6.6-0.3,10.1-0.9c3.5-0.6,6.6-1.5,9.4-2.5l4.3,23.6c-3.7,1.5-7.7,2.8-12.2,3.9s-9.9,1.6-16.5,1.6c-8.3,0-15.1-1.1-20.5-3.4
		c-5.4-2.2-9.8-5.3-13-9.3c-3.3-4-5.5-8.8-6.8-14.5c-1.3-5.7-1.9-12-1.9-18.9V74.4z"/>
	<path class="st0" d="M305.5,186.1c5.5,0,9.5-0.5,11.8-1.6c2.3-1.1,3.5-3.2,3.5-6.3c0-2.4-1.5-4.6-4.5-6.4c-3-1.8-7.5-3.9-13.6-6.2
		c-4.7-1.8-9-3.6-12.9-5.5c-3.9-1.9-7.1-4.2-9.9-6.8c-2.7-2.6-4.8-5.8-6.3-9.4c-1.5-3.7-2.2-8.1-2.2-13.2c0-10,3.7-17.9,11.2-23.8
		c7.4-5.8,17.7-8.7,30.7-8.7c6.5,0,12.7,0.6,18.7,1.7c6,1.2,10.7,2.4,14.2,3.8l-5.3,23.6c-3.5-1.2-7.3-2.3-11.5-3.2
		c-4.1-0.9-8.8-1.4-13.9-1.4c-9.5,0-14.2,2.6-14.2,7.9c0,1.2,0.2,2.3,0.6,3.3c0.4,0.9,1.2,1.9,2.4,2.7c1.2,0.9,2.9,1.8,5,2.9
		c2.1,1,4.8,2.2,8,3.4c6.6,2.5,12.1,4.9,16.5,7.3c4.3,2.4,7.7,5,10.3,7.7c2.5,2.8,4.3,5.8,5.3,9.2c1,3.4,1.5,7.3,1.5,11.7
		c0,10.5-4,18.5-11.9,23.9c-7.9,5.4-19.1,8.1-33.6,8.1c-9.5,0-17.4-0.8-23.7-2.4c-6.3-1.6-10.7-3-13.1-4.1l5.1-24.6
		c5.1,2,10.4,3.6,15.8,4.8C294.8,185.5,300.2,186.1,305.5,186.1z"/>
</g>
</svg>
