<?xml version="1.0" encoding="utf-8"?>
<!-- Generator: Adobe Illustrator 16.0.0, SVG Export Plug-In . SVG Version: 6.00 Build 0)  -->
<!DOCTYPE svg PUBLIC "-//W3C//DTD SVG 1.1//EN" "http://www.w3.org/Graphics/SVG/1.1/DTD/svg11.dtd">
<svg version="1.1" id="Layer_1" xmlns="http://www.w3.org/2000/svg" xmlns:xlink="http://www.w3.org/1999/xlink" x="0px" y="0px"
	 width="1000px" height="350px" viewBox="0 0 1000 350" style="enable-background:new 0 0 1000 350;" xml:space="preserve">
<style type="text/css">
	.st0{fill:#1E3458;}
</style>
<g>
	<path class="st0" d="M591.4,110.1l14,30.1h-3.2l-4.7-9.9h-13l-4.7,9.9h-3.4l14.2-30.1H591.4z M591,116.5l-5.2,10.9h10.3L591,116.5z
		"/>
	<path class="st0" d="M613.6,110.1h3v18.1c0,2.2,0,3.5,0.1,4c0.2,1.2,0.5,2.2,1,3c0.5,0.8,1.4,1.5,2.5,2c1.1,0.5,2.3,0.8,3.4,0.8
		c1,0,1.9-0.2,2.9-0.6c0.9-0.4,1.7-1,2.3-1.8c0.6-0.7,1.1-1.7,1.4-2.7c0.2-0.8,0.3-2.3,0.3-4.7v-18.1h3v18.1c0,2.7-0.3,4.9-0.8,6.5
		c-0.5,1.7-1.6,3.1-3.1,4.3c-1.6,1.2-3.5,1.8-5.7,1.8c-2.4,0-4.5-0.6-6.2-1.7c-1.7-1.2-2.9-2.7-3.5-4.6c-0.4-1.2-0.6-3.3-0.6-6.3
		V110.1z"/>
	<polygon class="st0" points="641.4,113.1 641.4,110.1 657.9,110.1 657.9,113.1 651.2,113.1 651.2,140.2 648.2,140.2 648.2,113.1
		"/>
	<path class="st0" d="M680,109.4c4.6,0,8.4,1.5,11.4,4.6c3.1,3,4.6,6.8,4.6,11.2c0,4.4-1.5,8.1-4.6,11.2c-3.1,3.1-6.8,4.6-11.2,4.6
		c-4.5,0-8.2-1.5-11.3-4.6c-3.1-3.1-4.6-6.7-4.6-11.1c0-2.9,0.7-5.6,2.1-8c1.4-2.5,3.3-4.4,5.7-5.8
		C674.6,110.1,677.2,109.4,680,109.4z M680.2,112.3c-2.2,0-4.3,0.6-6.3,1.7c-2,1.2-3.5,2.7-4.7,4.7c-1.1,2-1.7,4.2-1.7,6.6
		c0,3.6,1.2,6.6,3.7,9.1c2.5,2.5,5.5,3.7,9,3.7c2.3,0,4.5-0.6,6.5-1.7c2-1.1,3.5-2.7,4.6-4.6c1.1-2,1.7-4.1,1.7-6.5
		c0-2.4-0.6-4.5-1.7-6.5c-1.1-1.9-2.7-3.5-4.7-4.6C684.6,112.9,682.4,112.3,680.2,112.3z"/>
	<polygon class="st0" points="704.2,140.2 708.5,110.1 709,110.1 721.2,134.8 733.3,110.1 733.8,110.1 738.1,140.2 735.2,140.2
		732.2,118.7 721.6,140.2 720.8,140.2 710.1,118.5 707.1,140.2 	"/>
	<path class="st0" d="M759.8,110.1l14,30.1h-3.2l-4.7-9.9h-13l-4.7,9.9h-3.4l14.2-30.1H759.8z M759.4,116.5l-5.1,10.9h10.3
		L759.4,116.5z"/>
	<polygon class="st0" points="779,113.1 779,110.1 795.4,110.1 795.4,113.1 788.7,113.1 788.7,140.2 785.7,140.2 785.7,113.1 	"/>
	<rect x="802.8" y="110.1" class="st0" width="3" height="30.1"/>
	<path class="st0" d="M830.5,109.4c4.6,0,8.4,1.5,11.4,4.6c3.1,3,4.6,6.8,4.6,11.2c0,4.4-1.5,8.1-4.6,11.2
		c-3.1,3.1-6.8,4.6-11.2,4.6c-4.5,0-8.2-1.5-11.3-4.6c-3.1-3.1-4.6-6.7-4.6-11.1c0-2.9,0.7-5.6,2.1-8c1.4-2.5,3.3-4.4,5.7-5.8
		C825.1,110.1,827.7,109.4,830.5,109.4z M830.6,112.3c-2.2,0-4.3,0.6-6.3,1.7c-2,1.2-3.6,2.7-4.7,4.7c-1.1,2-1.7,4.2-1.7,6.6
		c0,3.6,1.2,6.6,3.7,9.1c2.5,2.5,5.5,3.7,9,3.7c2.3,0,4.5-0.6,6.5-1.7c2-1.1,3.5-2.7,4.6-4.6c1.1-2,1.7-4.1,1.7-6.5
		c0-2.4-0.6-4.5-1.7-6.5c-1.1-1.9-2.7-3.5-4.7-4.6S832.9,112.3,830.6,112.3z"/>
	<polygon class="st0" points="856.1,140.2 856.1,110.1 856.7,110.1 876.7,133.2 876.7,110.1 879.7,110.1 879.7,140.2 879,140.2
		859.2,117.4 859.2,140.2 	"/>
	<polygon class="st0" points="576.1,163.3 576.1,160.4 592.6,160.4 592.6,163.3 585.9,163.3 585.9,190.4 582.8,190.4 582.8,163.3
		"/>
	<polygon class="st0" points="599.2,160.4 616.5,160.4 616.5,163.3 602.3,163.3 602.3,172.7 616.4,172.7 616.4,175.7 602.3,175.7
		602.3,187.5 616.4,187.5 616.4,190.4 599.2,190.4 	"/>
	<path class="st0" d="M652,165.9l-2.4,1.8c-1.3-1.7-2.9-3-4.7-3.9c-1.8-0.9-3.8-1.3-6-1.3c-2.4,0-4.6,0.6-6.7,1.7
		c-2,1.2-3.6,2.7-4.8,4.6c-1.1,1.9-1.7,4.1-1.7,6.6c0,3.7,1.3,6.7,3.8,9.2c2.5,2.5,5.7,3.7,9.5,3.7c4.2,0,7.7-1.6,10.6-4.9l2.4,1.8
		c-1.5,1.9-3.4,3.4-5.6,4.4c-2.2,1-4.7,1.6-7.5,1.6c-5.3,0-9.4-1.8-12.4-5.3c-2.5-3-3.8-6.5-3.8-10.7c0-4.4,1.5-8.1,4.6-11.1
		c3.1-3,6.9-4.5,11.6-4.5c2.8,0,5.3,0.6,7.6,1.7C648.7,162.4,650.5,163.9,652,165.9z"/>
	<polygon class="st0" points="660.3,160.4 663.3,160.4 663.3,173 678.6,173 678.6,160.4 681.6,160.4 681.6,190.4 678.6,190.4
		678.6,175.9 663.3,175.9 663.3,190.4 660.3,190.4 	"/>
	<polygon class="st0" points="691.2,190.4 691.2,160.4 691.9,160.4 711.9,183.4 711.9,160.4 714.8,160.4 714.8,190.4 714.2,190.4
		694.3,167.6 694.3,190.4 	"/>
	<path class="st0" d="M738.8,159.6c4.5,0,8.4,1.5,11.4,4.6c3.1,3,4.6,6.8,4.6,11.2c0,4.4-1.5,8.1-4.6,11.2
		c-3.1,3.1-6.8,4.6-11.2,4.6c-4.5,0-8.2-1.5-11.3-4.6c-3.1-3.1-4.6-6.7-4.6-11.1c0-2.9,0.7-5.6,2.1-8c1.4-2.5,3.3-4.4,5.7-5.8
		C733.3,160.3,736,159.6,738.8,159.6z M738.9,162.5c-2.2,0-4.3,0.6-6.3,1.7c-2,1.2-3.5,2.7-4.7,4.7c-1.1,2-1.7,4.2-1.7,6.6
		c0,3.6,1.2,6.6,3.7,9.1c2.5,2.5,5.5,3.7,9,3.7c2.3,0,4.5-0.6,6.5-1.7s3.5-2.7,4.6-4.6c1.1-2,1.7-4.1,1.7-6.5c0-2.4-0.6-4.5-1.7-6.5
		c-1.1-1.9-2.7-3.5-4.7-4.6S741.2,162.5,738.9,162.5z"/>
	<polygon class="st0" points="763.1,160.4 766.1,160.4 766.1,187.5 777.7,187.5 777.7,190.4 763.1,190.4 	"/>
	<path class="st0" d="M799.1,159.6c4.6,0,8.4,1.5,11.4,4.6c3.1,3,4.6,6.8,4.6,11.2c0,4.4-1.5,8.1-4.6,11.2
		c-3.1,3.1-6.8,4.6-11.2,4.6c-4.5,0-8.2-1.5-11.3-4.6c-3.1-3.1-4.6-6.7-4.6-11.1c0-2.9,0.7-5.6,2.1-8c1.4-2.5,3.3-4.4,5.7-5.8
		C793.7,160.3,796.3,159.6,799.1,159.6z M799.2,162.5c-2.2,0-4.3,0.6-6.3,1.7c-2,1.2-3.5,2.7-4.7,4.7c-1.1,2-1.7,4.2-1.7,6.6
		c0,3.6,1.2,6.6,3.7,9.1c2.5,2.5,5.5,3.7,9,3.7c2.3,0,4.5-0.6,6.5-1.7c2-1.1,3.5-2.7,4.6-4.6c1.1-2,1.7-4.1,1.7-6.5
		c0-2.4-0.6-4.5-1.7-6.5c-1.1-1.9-2.7-3.5-4.7-4.6S801.5,162.5,799.2,162.5z"/>
	<path class="st0" d="M852.4,165.4l-2.3,2.2c-1.7-1.6-3.5-2.9-5.5-3.8c-2-0.9-3.9-1.3-5.8-1.3c-2.4,0-4.6,0.6-6.7,1.7
		c-2.1,1.2-3.8,2.7-5,4.7c-1.2,2-1.8,4.1-1.8,6.3c0,2.3,0.6,4.4,1.8,6.4c1.2,2,2.9,3.6,5,4.8c2.1,1.2,4.5,1.7,7,1.7
		c3.1,0,5.7-0.9,7.8-2.6c2.1-1.7,3.4-4,3.8-6.8h-9.6V176h13c0,4.6-1.4,8.3-4.1,11.1c-2.7,2.7-6.4,4.1-11,4.1c-5.6,0-10-1.9-13.2-5.7
		c-2.5-2.9-3.7-6.3-3.7-10.1c0-2.8,0.7-5.5,2.1-7.9c1.4-2.5,3.4-4.4,5.9-5.8c2.5-1.4,5.3-2.1,8.5-2.1c2.5,0,4.9,0.5,7.2,1.4
		C848.1,161.9,850.3,163.4,852.4,165.4z"/>
	<polygon class="st0" points="859.9,160.4 863.3,160.4 871,172.7 878.6,160.4 882.1,160.4 872.5,176 872.5,190.4 869.6,190.4
		869.6,176 	"/>
	<path class="st0" d="M576,235l2.6-1.5c1.8,3.3,3.9,5,6.2,5c1,0,2-0.2,2.8-0.7c0.9-0.5,1.6-1.1,2-1.9s0.7-1.6,0.7-2.5c0-1-0.3-2-1-3
		c-0.9-1.3-2.7-2.9-5.2-4.8c-2.5-1.9-4.1-3.3-4.7-4.1c-1.1-1.4-1.6-2.9-1.6-4.6c0-1.3,0.3-2.5,0.9-3.6c0.6-1.1,1.5-1.9,2.6-2.5
		c1.1-0.6,2.4-0.9,3.7-0.9c1.4,0,2.7,0.4,4,1.1c1.2,0.7,2.5,2,3.9,3.9l-2.5,1.9c-1.1-1.5-2.1-2.5-2.9-3c-0.8-0.5-1.7-0.7-2.6-0.7
		c-1.2,0-2.2,0.4-3,1.1c-0.8,0.7-1.2,1.6-1.2,2.7c0,0.7,0.1,1.3,0.4,1.9c0.3,0.6,0.8,1.3,1.5,2c0.4,0.4,1.7,1.4,3.9,3
		c2.6,1.9,4.4,3.6,5.4,5.1c1,1.5,1.5,3,1.5,4.5c0,2.2-0.8,4.1-2.5,5.7c-1.7,1.6-3.7,2.4-6,2.4c-1.8,0-3.5-0.5-5-1.5
		C578.6,239,577.3,237.3,576,235z"/>
	<path class="st0" d="M625.3,209.8c4.6,0,8.4,1.5,11.4,4.6c3.1,3,4.6,6.8,4.6,11.2c0,4.4-1.5,8.1-4.6,11.2
		c-3.1,3.1-6.8,4.6-11.2,4.6c-4.5,0-8.2-1.5-11.3-4.6c-3.1-3.1-4.6-6.7-4.6-11.1c0-2.9,0.7-5.6,2.1-8c1.4-2.5,3.3-4.4,5.7-5.8
		C619.9,210.5,622.5,209.8,625.3,209.8z M625.5,212.7c-2.2,0-4.3,0.6-6.3,1.7c-2,1.2-3.5,2.7-4.7,4.7c-1.1,2-1.7,4.2-1.7,6.6
		c0,3.6,1.2,6.6,3.7,9.1c2.5,2.5,5.5,3.7,9,3.7c2.3,0,4.5-0.6,6.5-1.7c2-1.1,3.5-2.7,4.6-4.6c1.1-2,1.7-4.1,1.7-6.5
		c0-2.4-0.6-4.5-1.7-6.5c-1.1-1.9-2.7-3.5-4.7-4.6C629.9,213.3,627.7,212.7,625.5,212.7z"/>
	<polygon class="st0" points="658.4,210.6 661.5,210.6 661.5,237.7 673,237.7 673,240.6 658.4,240.6 	"/>
	<path class="st0" d="M688.9,210.6h3v18.1c0,2.2,0,3.5,0.1,4c0.2,1.2,0.5,2.2,1,3c0.5,0.8,1.4,1.5,2.5,2c1.1,0.5,2.3,0.8,3.4,0.8
		c1,0,1.9-0.2,2.9-0.6c0.9-0.4,1.7-1,2.3-1.8c0.6-0.7,1.1-1.7,1.3-2.7c0.2-0.8,0.3-2.3,0.3-4.7v-18.1h3v18.1c0,2.7-0.3,4.9-0.8,6.5
		c-0.5,1.7-1.6,3.1-3.1,4.3c-1.6,1.2-3.5,1.8-5.7,1.8c-2.4,0-4.5-0.6-6.2-1.7c-1.7-1.2-2.9-2.7-3.5-4.6c-0.4-1.2-0.6-3.3-0.6-6.3
		V210.6z"/>
	<polygon class="st0" points="724.3,213.5 724.3,210.6 740.8,210.6 740.8,213.5 734.1,213.5 734.1,240.6 731,240.6 731,213.5 	"/>
	<rect x="755.8" y="210.6" class="st0" width="3" height="30.1"/>
	<path class="st0" d="M791,209.8c4.6,0,8.4,1.5,11.4,4.6c3.1,3,4.6,6.8,4.6,11.2c0,4.4-1.5,8.1-4.6,11.2c-3.1,3.1-6.8,4.6-11.2,4.6
		c-4.5,0-8.2-1.5-11.3-4.6c-3.1-3.1-4.6-6.7-4.6-11.1c0-2.9,0.7-5.6,2.1-8c1.4-2.5,3.3-4.4,5.7-5.8
		C785.6,210.5,788.2,209.8,791,209.8z M791.2,212.7c-2.2,0-4.3,0.6-6.3,1.7c-2,1.2-3.5,2.7-4.7,4.7c-1.1,2-1.7,4.2-1.7,6.6
		c0,3.6,1.2,6.6,3.7,9.1c2.5,2.5,5.5,3.7,9,3.7c2.3,0,4.5-0.6,6.5-1.7c2-1.1,3.5-2.7,4.6-4.6c1.1-2,1.7-4.1,1.7-6.5
		c0-2.4-0.6-4.5-1.7-6.5c-1.1-1.9-2.7-3.5-4.7-4.6C795.6,213.3,793.4,212.7,791.2,212.7z"/>
	<polygon class="st0" points="824.2,240.6 824.2,210.6 824.8,210.6 844.8,233.6 844.8,210.6 847.8,210.6 847.8,240.6 847.1,240.6
		827.3,217.9 827.3,240.6 	"/>
	<path class="st0" d="M863.1,235l2.6-1.5c1.8,3.3,3.9,5,6.2,5c1,0,2-0.2,2.8-0.7c0.9-0.5,1.6-1.1,2-1.9s0.7-1.6,0.7-2.5
		c0-1-0.3-2-1-3c-0.9-1.3-2.7-2.9-5.2-4.8c-2.5-1.9-4.1-3.3-4.7-4.1c-1.1-1.4-1.6-2.9-1.6-4.6c0-1.3,0.3-2.5,0.9-3.6
		c0.6-1.1,1.5-1.9,2.6-2.5c1.1-0.6,2.4-0.9,3.7-0.9c1.4,0,2.7,0.4,4,1.1c1.2,0.7,2.5,2,3.9,3.9l-2.5,1.9c-1.1-1.5-2.1-2.5-2.9-3
		c-0.8-0.5-1.7-0.7-2.6-0.7c-1.2,0-2.2,0.4-3,1.1c-0.8,0.7-1.2,1.6-1.2,2.7c0,0.7,0.1,1.3,0.4,1.9c0.3,0.6,0.8,1.3,1.5,2
		c0.4,0.4,1.7,1.4,3.9,3c2.6,1.9,4.4,3.6,5.4,5.1c1,1.5,1.5,3,1.5,4.5c0,2.2-0.8,4.1-2.5,5.7c-1.7,1.6-3.7,2.4-6,2.4
		c-1.8,0-3.5-0.5-5-1.5C865.7,239,864.3,237.3,863.1,235z"/>
	<line class="st0" x1="500.9" y1="263.8" x2="500.9" y2="86.9"/>
	<polyline class="st0" points="502.2,263.8 502.2,86.9 499.5,86.9 499.5,263.8 	"/>
	<polygon class="st0" points="978.9,328.3 978.9,326.3 24.9,326.3 24.9,24.5 976.9,24.5 976.9,328.3 978.9,328.3 978.9,326.3
		978.9,328.3 980.9,328.3 980.9,20.4 20.8,20.4 20.8,330.3 980.9,330.3 980.9,328.3 	"/>
	<path class="st0" d="M131.5,115.2c10.7,0,19.7,1.2,26.8,3.7c7.1,2.4,12.9,5.9,17.2,10.5c4.3,4.5,7.3,10.1,9.1,16.6
		c1.8,6.5,2.7,13.7,2.7,21.7v75.5c-5.2,1.1-12.4,2.5-21.7,4c-9.3,1.5-20.5,2.3-33.6,2.3c-8.3,0-15.8-0.7-22.5-2.2
		c-6.7-1.5-12.5-3.9-17.4-7.2c-4.9-3.3-8.6-7.7-11.2-13c-2.6-5.4-3.9-11.9-3.9-19.7c0-7.5,1.5-13.8,4.5-19c3-5.2,7-9.3,12.1-12.4
		c5-3.1,10.8-5.3,17.3-6.7c6.5-1.4,13.2-2.1,20.2-2.1c4.7,0,8.9,0.2,12.5,0.6c3.7,0.4,6.6,0.9,8.9,1.6v-3.4c0-6.2-1.9-11.1-5.6-14.9
		c-3.7-3.7-10.2-5.6-19.5-5.6c-6.2,0-12.3,0.4-18.3,1.3c-6,0.9-11.2,2.2-15.6,3.8l-4.6-29.2c2.1-0.6,4.8-1.3,7.9-2.1
		c3.2-0.7,6.6-1.4,10.4-1.9c3.7-0.6,7.7-1.1,11.8-1.5C123.1,115.4,127.3,115.2,131.5,115.2z M134.4,221.4c3.6,0,7-0.1,10.2-0.2
		c3.2-0.2,5.8-0.4,7.8-0.7v-27.5c-1.5-0.3-3.7-0.6-6.6-1c-2.9-0.3-5.6-0.5-8-0.5c-3.4,0-6.6,0.2-9.6,0.6c-3,0.4-5.6,1.2-7.9,2.3
		c-2.3,1.1-4.1,2.7-5.4,4.6c-1.3,1.9-1.9,4.4-1.9,7.3c0,5.7,1.9,9.6,5.7,11.8C122.5,220.3,127.7,221.4,134.4,221.4z"/>
	<path class="st0" d="M218.9,86.7l36.3-5.8v37.8h43.6v30.2h-43.6v45.1c0,7.6,1.3,13.7,4,18.3c2.7,4.5,8.1,6.8,16.2,6.8
		c3.9,0,7.9-0.4,12.1-1.1c4.1-0.7,7.9-1.7,11.3-3l5.1,28.3c-4.4,1.8-9.3,3.3-14.6,4.6c-5.4,1.3-11.9,2-19.7,2
		c-9.9,0-18.1-1.3-24.6-4c-6.5-2.7-11.7-6.4-15.6-11.2c-3.9-4.8-6.6-10.6-8.2-17.4c-1.5-6.8-2.3-14.4-2.3-22.7V86.7z"/>
	<path class="st0" d="M365.1,220.7c6.7,0,11.4-0.6,14.1-2c2.8-1.3,4.1-3.8,4.1-7.6c0-2.9-1.8-5.5-5.4-7.7c-3.6-2.2-9-4.7-16.3-7.4
		c-5.7-2.1-10.8-4.3-15.5-6.6c-4.6-2.3-8.6-5-11.8-8.2c-3.3-3.2-5.8-6.9-7.6-11.3c-1.8-4.4-2.7-9.7-2.7-15.8
		c0-12,4.5-21.5,13.4-28.5c8.9-7,21.2-10.5,36.8-10.5c7.8,0,15.3,0.7,22.4,2.1c7.1,1.4,12.8,2.9,17.1,4.5l-6.3,28.3
		c-4.2-1.5-8.8-2.8-13.8-3.9c-5-1.1-10.5-1.7-16.7-1.7c-11.4,0-17.1,3.2-17.1,9.5c0,1.5,0.2,2.8,0.7,3.9c0.5,1.1,1.5,2.2,2.9,3.3
		c1.5,1.1,3.4,2.2,6,3.4c2.5,1.2,5.7,2.6,9.6,4.1c8,3,14.5,5.9,19.7,8.7c5.2,2.9,9.3,6,12.3,9.3c3,3.3,5.1,7,6.3,11.1
		c1.2,4,1.8,8.8,1.8,14.1c0,12.6-4.8,22.2-14.3,28.7c-9.5,6.5-22.9,9.7-40.3,9.7c-11.4,0-20.8-1-28.4-2.9c-7.6-2-12.8-3.6-15.7-4.9
		l6.1-29.5c6.2,2.4,12.5,4.3,19,5.7C352.4,220,358.8,220.7,365.1,220.7z"/>
</g>
</svg>
