<?xml version="1.0" encoding="utf-8"?>
<!-- Generator: Adobe Illustrator 16.0.0, SVG Export Plug-In . SVG Version: 6.00 Build 0)  -->
<!DOCTYPE svg PUBLIC "-//W3C//DTD SVG 1.1//EN" "http://www.w3.org/Graphics/SVG/1.1/DTD/svg11.dtd">
<svg version="1.1" id="Layer_1" xmlns="http://www.w3.org/2000/svg" xmlns:xlink="http://www.w3.org/1999/xlink" x="0px" y="0px"
	 width="600px" height="300px" viewBox="0 0 600 300" style="enable-background:new 0 0 600 300;" xml:space="preserve">
<style type="text/css">
	.st1{fill:#FFF;}
</style>
<g>
	<path class="st1" d="M99.7,62.8c18.4,0,33.7,2.1,46,6.3c12.3,4.2,22.1,10.2,29.5,18c7.4,7.8,12.6,17.3,15.7,28.4
		c3.1,11.2,4.6,23.6,4.6,37.2v129.6c-8.9,2-21.3,4.3-37.2,6.9c-15.9,2.6-35.1,4-57.7,4c-14.2,0-27.1-1.3-38.7-3.8
		c-11.6-2.5-21.5-6.6-29.9-12.3c-8.4-5.7-14.8-13.2-19.2-22.4C8.2,245.5,6,234.2,6,220.9c0-12.8,2.6-23.7,7.7-32.6
		c5.2-8.9,12.1-16,20.7-21.3c8.6-5.3,18.5-9.1,29.7-11.5c11.1-2.4,22.7-3.6,34.7-3.6c8.1,0,15.3,0.4,21.5,1
		c6.3,0.7,11.4,1.6,15.3,2.7v-5.9c0-10.6-3.2-19.1-9.6-25.5c-6.4-6.4-17.6-9.6-33.5-9.6c-10.6,0-21.1,0.8-31.4,2.3
		c-10.3,1.5-19.2,3.7-26.8,6.5l-7.9-50.2c3.6-1.1,8.2-2.3,13.6-3.6c5.4-1.3,11.4-2.4,17.8-3.3c6.4-1,13.2-1.8,20.3-2.5
		C85.3,63.1,92.4,62.8,99.7,62.8z M104.7,245.1c6.1,0,12-0.1,17.6-0.4c5.6-0.3,10-0.7,13.4-1.3v-47.3c-2.5-0.6-6.3-1.1-11.3-1.7
		c-5-0.6-9.6-0.8-13.8-0.8c-5.9,0-11.4,0.4-16.5,1c-5.2,0.7-9.7,2-13.6,4c-3.9,2-7,4.6-9.2,7.9c-2.2,3.3-3.3,7.5-3.3,12.5
		c0,9.8,3.3,16.5,9.8,20.3C84.3,243.2,93.3,245.1,104.7,245.1z"/>
	<path class="st1" d="M249.8,13.9l62.3-10v64.8H387v51.9h-74.9v77.4c0,13.1,2.3,23.6,6.9,31.4c4.6,7.8,13.9,11.7,27.8,11.7
		c6.7,0,13.6-0.6,20.7-1.9c7.1-1.3,13.6-3,19.4-5.2l8.8,48.5c-7.5,3.1-15.9,5.7-25.1,7.9c-9.2,2.2-20.5,3.3-33.9,3.3
		c-17,0-31.1-2.3-42.2-6.9c-11.2-4.6-20.1-11-26.8-19.2c-6.7-8.2-11.4-18.2-14-29.9c-2.7-11.7-4-24.7-4-38.9V13.9z"/>
	<path class="st1" d="M500.7,243.9c11.4,0,19.5-1.1,24.3-3.3c4.7-2.2,7.1-6.6,7.1-13c0-5-3.1-9.4-9.2-13.2c-6.1-3.8-15.5-8-28-12.8
		c-9.8-3.6-18.6-7.4-26.6-11.3c-7.9-3.9-14.7-8.6-20.3-14c-5.6-5.4-9.9-11.9-13-19.4c-3.1-7.5-4.6-16.6-4.6-27.2
		c0-20.6,7.7-36.9,23-48.9c15.3-12,36.4-18,63.1-18c13.4,0,26.2,1.2,38.5,3.6c12.3,2.4,22,5,29.3,7.7l-10.9,48.5
		c-7.3-2.5-15.1-4.7-23.6-6.7c-8.5-1.9-18.1-2.9-28.7-2.9c-19.5,0-29.3,5.4-29.3,16.3c0,2.5,0.4,4.7,1.3,6.7c0.8,2,2.5,3.8,5,5.6
		c2.5,1.8,5.9,3.8,10.2,5.9c4.3,2.1,9.8,4.4,16.5,7c13.7,5.1,24.9,10.1,33.9,15c8.9,4.9,16,10.2,21.1,15.9c5.2,5.7,8.8,12,10.9,19
		c2.1,6.9,3.1,15,3.1,24.2c0,21.7-8.2,38.1-24.5,49.2c-16.3,11.1-39.4,16.7-69.2,16.7c-19.5,0-35.8-1.7-48.7-5
		c-13-3.3-22-6.1-27-8.4l10.5-50.6c10.6,4.2,21.5,7.5,32.6,9.8C478.8,242.7,489.9,243.9,500.7,243.9z"/>
</g>
</svg>
