<svg id="icons" enable-background="new 0 0 64 64" height="512" viewBox="0 0 64 64" width="512" xmlns="http://www.w3.org/2000/svg"><path d="m32 29c-8.822 0-16 7.178-16 16s7.178 16 16 16 16-7.178 16-16-7.178-16-16-16zm0 30c-7.72 0-14-6.28-14-14s6.28-14 14-14 14 6.28 14 14-6.28 14-14 14z"/><path d="m53.002 7.004v-6.004c0-.553-.447-1-1-1h-7.002c-.553 0-1 .447-1 1v6.004c-.553 0-1 .447-1 1v7c0 .553.447 1 1 1h1v3.018c0 .553.447 1 1 1v12.178c-3.477-3.8-8.457-6.2-14-6.2s-10.523 2.4-14 6.199v-12.178c.553 0 1-.447 1-1v-3.018h1c.553 0 1-.447 1-1v-7c0-.552-.446-.998-.998-1v-6.003c0-.553-.447-1-1-1h-7.004c-.553 0-1 .447-1 1v6.004c-.553 0-1 .447-1 1v7c0 .553.447 1 1 1h1.002v3.018c0 .553.447 1 1 1v24.978c0 10.477 8.523 19 19 19s19-8.523 19-19v-24.979h.002c.553 0 1-.447 1-1v-3.018h1c.553 0 1-.447 1-1v-7c0-.552-.447-.999-1-.999zm-2 0h-1.502v-5.004h1.502zm-5.002-5.004h1.5v5.004h-1.5zm-27.998 5.004h-1.502v-5.004h1.502zm-5.004-5.004h1.502v5.004h-1.502zm-1 7.004h7.002v5h-7.002zm5.002 7v2.006c-.021 0-.038.011-.059.012h-2.883c-.02-.001-.037-.012-.058-.012v-2.006zm-2 4.017h1v14.772c-.365.57-.696 1.162-1 1.771zm17 41.979c-9.374 0-17-7.626-17-17s7.626-17 17-17 17 7.626 17 17-7.626 17-17 17zm17-25.435c-.304-.609-.635-1.201-1-1.771v-14.773h1zm1.002-18.544h-3.002v-2.018h3.002zm2-4.017h-7.002v-5h7.002z"/></svg>