<svg height="512pt" viewBox="-4 0 512 512" width="512pt" xmlns="http://www.w3.org/2000/svg"><path d="m460.863281 55.464844c-.023437-21.195313-17.203125-38.375-38.398437-38.398438h-1.058594c-1.472656-.109375-2.949219-.070312-4.410156.121094-.507813.070312-1.007813.1875-1.496094.347656l-13.472656 4.488282c-14.433594 4.796874-30.035156 4.796874-44.46875 0l-13.464844-4.480469c-.488281-.15625-.984375-.273438-1.492188-.347657-1.464843-.191406-2.941406-.234374-4.414062-.128906h-1.058594c-8.6875.035156-17.101562 3.046875-23.839844 8.535156h-85.195312c-3.027344-5.265624-8.625-8.515624-14.695312-8.535156h-27.015626c-2.085937-4.925781-6.355468-8.589844-11.539062-9.898437l-26.625-6.65625c-1.34375-.335938-2.726562-.50781275-4.113281-.511719h-75.773438c-18.851562 0-34.132812 15.28125-34.132812 34.132812v17.921876c-20.488281 2.996093-35.300781 21.140624-34.136719 41.8125 0 35.753906 0 89.804687 114.613281 169.148437 38.535157 26.683594 52.054688 46.632813 55.390625 60.421875-3.941406.554688-7.917968.839844-11.898437.855469h-47.171875c-9.425782 0-17.066406 7.640625-17.066406 17.066406v70.636719c-5.253907 3.023437-8.503907 8.609375-8.53125 14.671875v18.636719c-7.226563 2.582031-12.914063 8.269531-15.496094 15.496093h-13.84375c-11.746094-.003906-21.988282 7.992188-24.839844 19.386719l-2.652344 10.617188c-1.273437 5.097656-.125 10.496093 3.109375 14.636718 3.238281 4.140625 8.199219 6.558594 13.453125 6.558594h219.46875c.402344-.050781.804688-.128906 1.195313-.238281.390625.109375.789062.1875 1.195312.238281h31.742188c5.253906 0 10.210937-2.421875 13.445312-6.5625s4.382813-9.539062 3.109375-14.632812l-2.652344-10.625c-2.855468-11.390626-13.089843-19.378907-24.832031-19.378907h-16.214843c-2.585938-7.234375-8.285157-12.921875-15.523438-15.496093v-18.636719c-.015625-6.070313-3.269531-11.671875-8.53125-14.695313v-4.128906c26.332031-6.648438 116.796875-34.484375 127.019531-104.5625.058594-.28125.109375-.550781.125-.671875.085938-.605469.105469-1.253906.179688-1.878906.179687-1.558594.34375-3.140625.445312-4.75 0-.460938.09375-.90625.128907-1.375.101562-1.453125.101562-2.910157.101562-4.472657-.050781-47.105468-38.226562-85.28125-85.332031-85.332031-8.285157.015625-16.523438 1.257813-24.441407 3.6875l-132.265624-97.554687h10.613281c1.375 0 2.746093-.171875 4.082031-.511719l26.691406-6.664063c5.179688-1.304687 9.441406-4.96875 11.511719-9.890624h27.007813c9.425781 0 17.066406-7.640626 17.066406-17.066407h74.769531c7.117187 10.652344 19.082031 17.054688 31.894531 17.066407h1.058594c1.472656.109374 2.949219.070312 4.414062-.121094.507813-.070313 1.003907-.1875 1.492188-.347656l13.472656-4.488282c11.285156-3.707031 23.316406-4.5 34.988282-2.3125v24.335938c-3.636719.03125-6.855469 2.371094-8.011719 5.820312l-4.746094 14.464844c-.058594.050781-.144531.074219-.203125.136719l-30.636719 30.632812c-4.796875 4.789063-7.492187 11.289063-7.492187 18.066407 0 6.777343 2.695312 13.277343 7.492187 18.0625l31.660157 31.660156c4.871093 4.871094 12.199218 6.335937 18.570312 3.710937 6.371094-2.628906 10.535156-8.828125 10.5625-15.71875v-27.730469c0-2.265624-.902344-4.433593-2.5-6.035156l-3.953125-3.949218 9.386719-9.386719h20.019531l8.953125 8.957031-4.371094 4.378906c-1.597656 1.601563-2.5 3.769532-2.5 6.035156v27.730469c.015625 6.902344 4.1875 13.117188 10.570313 15.746094 6.382812 2.625 13.71875 1.152344 18.589843-3.738281l32.09375-32.085938c9.949219-9.988281 9.949219-26.140625 0-36.128906l-30.207031-30.207031c-.410156-.328125-.847656-.613281-1.308593-.855469l-4.5625-13.710938c-1.125-3.304687-4.144532-5.59375-7.628907-5.777343v-31.703125c5.484375-6.738282 8.496094-15.152344 8.53125-23.84375zm-21.066406 98.136718h-35.046875l-10.839844-10.847656.410156-1.21875.042969-.136718 4.464844-13.398438h46.878906l4.925781 14.753906zm-30.132813-42.667968v-19.449219l5.835938 1.945313c.488281.160156.988281.277343 1.496094.351562.867187.121094 1.746094.175781 2.625.171875.589844 0 1.1875 0 1.785156-.050781h1.058594c4.371094-.042969 8.699218-.839844 12.800781-2.355469v19.386719zm-129.921874 129.082031c-23.71875 4.976563-40.710938 25.882813-40.746094 50.117187 0 .453126.0625.855469.070312 1.339844l-144.09375-121.984375c19.339844-4.359375 33.082032-21.535156 33.089844-41.359375zm-23.679688 50.117187c0-18.851562 15.285156-34.132812 34.136719-34.132812 18.847656 0 34.132812 15.28125 34.132812 34.132812 0 18.851563-15.285156 34.132813-34.132812 34.132813-18.851563 0-34.136719-15.28125-34.136719-34.132813zm-152.558594-180.230468c9.996094 9.996094 9.996094 26.199218 0 36.195312-9.757812 9.277344-24.957031 9.648438-35.15625.855469l-1.160156-.980469c-9.570312-10.09375-9.332031-25.984375.539062-35.785156 9.875-9.800781 25.765626-9.921875 35.789063-.277344zm20.882813 139.089844c-107.257813-74.261719-107.257813-122.929688-107.257813-155.125-1.03125-11.179688 6.199219-21.457032 17.070313-24.269532v24.269532c.03125 7.644531 5.148437 14.335937 12.515625 16.375-7.558594 16.171874-4.144532 35.351562 8.535156 47.921874.128906.128907.28125.214844.410156.335938.125.117188.066406.109375.109375.152344l149.382813 126.480468c-.09375 1.65625-.289063 3.292969-.289063 5 .570313 12.503907-6.785156 24.011719-18.371093 28.742188-5.617188-21.734375-26.394532-45.167969-62.105469-69.890625zm-13.390625 92.339843h47.171875c3.550781 0 7.097656-.1875 10.625-.554687-4.085938 7.941406-10.601563 14.371094-18.59375 18.355468l-.117188.085938c-1.601562-.519531-3.269531-.796875-4.953125-.820312h-34.132812zm128 85.335938v17.066406h-136.53125v-17.066406zm-128-17.066407v-34.136718h34.132812v34.136718zm-63.222656 74.734376c.949218-3.804688 4.367187-6.472657 8.285156-6.46875h12.273437v17.066406h-23.203125zm208.289062 10.597656h-170.664062v-25.601563c0-4.710937 3.820312-8.53125 8.53125-8.53125h153.601562c4.710938 0 8.53125 3.820313 8.53125 8.53125zm19.457031-17.066406h12.28125c3.914063 0 7.324219 2.664062 8.277344 6.460937l2.652344 10.605469h-23.210938zm-35.234375-85.828126c-5.773437 1.347657-9.847656 6.511719-9.820312 12.441407v5.121093h-68.265625v-34.136718c-.007813-1.097656-.121094-2.191406-.335938-3.265625 13.429688-7.410157 22.859375-20.410157 25.738281-35.472657 8.972657-2.875 17.03125-8.054687 23.371094-15.019531 12.699219 31.855469 43.21875 53.023438 77.5 53.757813-15.488281 7.070312-31.625 12.617187-48.1875 16.574218zm49.914063-170.171874c37.683593.042968 68.222656 30.582031 68.265625 68.265624 0 1.707032-.101563 3.328126-.214844 4.96875-.09375 1.191407-.203125 2.371094-.332031 3.523438-.097657.765625-.199219 1.527344-.308594 2.277344l-.050781.289062-.460938 2.671875c-6.71875 32.410157-35.71875 55.328125-68.800781 54.378907-33.085937-.949219-60.722656-25.496094-65.574219-58.234376l33.949219 28.730469c.527344.460938 1.046875.921875 1.59375 1.355469l.851563.691406c.148437.121094.324218.164063.472656.265625 22.546875 16.738281 54.375 12.160157 71.285156-10.257812 16.914062-22.417969 12.578125-54.28125-9.710938-71.363281-.101562-.085938-.152343-.214844-.265624-.300782l-36.675782-26.996094c1.992188-.179687 3.984375-.265624 5.976563-.265624zm-146.09375-128h-33.355469c-14.984375-11.378907-35.710938-11.378907-50.695312 0h-8.789063v-59.734376c0-9.425781 7.640625-17.066406 17.066406-17.066406h75.722657l26.675781 6.683594v63.460938zm43.691406-17.066407v-42.667969h25.601563v42.667969zm42.667969-17.066406v-17.066406h70.621094c-1.515626 4.097656-2.3125 8.429687-2.355469 12.796875.0625 1.429687.207031 2.855468.433593 4.269531zm121.703125 13.011719-12.476563 4.148437c-.25 0-.488281 0-.742187 0-.574219-.09375-1.195313-.09375-1.820313-.09375-8.652344-.015625-16.4375-5.257812-19.710937-13.265625-3.269531-8.011718-1.378907-17.207031 4.789062-23.273437.050781-.050781.117188-.085938.167969-.136719 3.953125-3.839844 9.246094-5.988281 14.753906-5.992188.625 0 1.246094 0 1.855469-.058593h.742187l12.429688 4.148437c17.945312 5.953125 37.328125 5.953125 55.273438 0l12.472656-4.183594h.746094c.605468 0 1.226562.058594 1.851562.058594 11.78125 0 21.332031 9.554688 21.332031 21.335938s-9.550781 21.332031-21.332031 21.332031c-.625 0-1.246094 0-1.851562.058594l-.746094.042969-12.429688-4.144532c-17.941406-5.980468-37.332031-5.980468-55.273437 0zm40.488281 144.964844-31.632812-31.683594c-1.59375-1.589844-2.492188-3.746094-2.492188-6 0-2.25.898438-4.410156 2.492188-6l20.035156-20.035156 12.085937 12.082031-4.941406 4.941406c-4.953125 4.992187-4.953125 13.042969 0 18.03125l4.488281 4.496094zm91.308594-32.085938-32.101563 32.144531v-24.199219l4.929688-4.933593c4.953125-4.988281 4.953125-13.039063 0-18.03125l-4.929688-4.929688 12.074219-12.074219 20.035156 20.035157c3.28125 3.324219 3.28125 8.664062 0 11.988281zm0 0"/></svg>